<svg width="42" height="42" viewBox="0 0 42 42" fill="none" xmlns="http://www.w3.org/2000/svg">
<path d="M3.08624 38.9134C1.52414 37.3513 1.52414 34.8186 3.08624 33.2565L33.2561 3.08665C34.8182 1.52455 37.3509 1.52455 38.913 3.08664C40.4751 4.64874 40.4751 7.1814 38.913 8.7435L8.7431 38.9134C7.181 40.4755 4.64834 40.4755 3.08624 38.9134Z" fill="white"/>
<path d="M3.08624 8.74347C1.52414 7.18137 1.52414 4.64871 3.08624 3.08661C4.64834 1.52451 7.181 1.52451 8.74309 3.08661L38.913 33.2565C40.4751 34.8186 40.4751 37.3513 38.913 38.9134C37.3509 40.4755 34.8182 40.4755 33.2561 38.9134L3.08624 8.74347Z" fill="white"/>
</svg>
